<svg width="138" height="30" viewBox="0 0 138 30" fill="none" xmlns="http://www.w3.org/2000/svg">
<path d="M136.385 10.7539C137.46 11.6238 136.321 12.9998 135.372 12.304C134.202 11.5606 131.545 11.2127 131.213 12.8575C130.785 15.4514 137.666 13.9647 137.555 18.1717C137.444 22.1892 131.624 22.2841 129.441 20.481C128.919 20.054 128.935 19.358 129.22 18.9309C129.631 18.5198 130.09 18.3774 130.627 18.8202C131.924 19.706 135.262 20.3703 135.499 18.1244C135.293 15.7835 128.714 17.1912 129.204 12.6994C129.568 9.63099 134.202 9.07736 136.385 10.7539ZM126.008 11.3707V17.0963C126.008 23.0116 116.471 23.0116 116.471 17.0963V11.3707C116.471 9.94737 118.543 9.88405 118.543 11.3707V17.0963C118.543 20.2121 123.936 20.4019 123.936 17.0963V11.3707C123.936 9.96308 126.008 9.85238 126.008 11.3707ZM60.7009 9.93154C63.4687 10.0738 66.3631 11.9876 66.3631 15.7361C66.3631 19.4845 63.4687 21.43 60.7009 21.43C57.7748 21.5565 54.7381 19.6111 54.7381 15.7361C54.7381 11.8452 57.7748 9.93154 60.7009 9.93154ZM74.6354 10.3268C78.6528 10.3268 79.4752 15.7045 76.1222 17.0488L78.2257 19.6111C79.0481 20.829 77.4032 21.9993 76.4543 20.7973L74.066 17.381H71.5828V20.2437C71.5828 21.6197 69.4792 21.6672 69.4792 20.2754V11.2917C69.4792 10.7381 69.9063 10.3268 70.4283 10.3268H74.6354ZM41.863 10.1846C42.3217 10.1846 42.5906 10.4535 42.8595 10.7539L46.339 15.4514L49.9452 10.5799C50.4671 9.93155 51.7483 10.1846 51.7483 11.2759V20.1805C51.7483 20.8764 51.3054 21.2718 50.7993 21.2718C50.2299 21.2718 49.787 20.8764 49.787 20.1805V14.3285L47.1616 17.6499C46.5921 18.3458 45.8804 18.3458 45.3585 17.6499L43.0018 14.3285V20.1805C43.0018 20.8764 42.4324 21.2718 41.863 21.2718C41.3569 21.2718 40.9141 20.8764 40.9141 20.1805V11.2759C40.9141 10.4535 41.61 10.1846 41.863 10.1846ZM86.1026 10.1846C88.1588 10.1846 90.0093 11.5606 90.0093 14.2019C90.0093 16.7009 88.1588 18.0927 86.1026 18.0927H83.4613V20.1805C83.4613 20.8764 83.0184 21.2718 82.449 21.2718C81.9271 21.2718 81.3735 20.8764 81.3735 20.1805V11.2759C81.3735 10.7539 81.7848 10.1846 82.449 10.1846H86.1026ZM101.208 10.3268C101.761 10.3268 102.188 10.7381 102.188 11.3075V20.2912C102.188 20.8447 101.761 21.2718 101.208 21.2718C100.638 21.2718 100.132 20.8447 100.132 20.2912V16.8274H94.9761V20.2912C94.9761 20.8447 94.5649 21.2718 94.0113 21.2718C93.2996 21.2718 92.8883 20.8447 92.8883 20.2912V11.3075C92.8883 10.7381 93.2996 10.3268 94.0113 10.3268C94.5649 10.3268 94.9761 10.7381 94.9761 11.3075V14.7555H100.132V11.3075C100.132 10.7381 100.638 10.3268 101.208 10.3268ZM112.216 10.3268C113.671 10.3268 113.64 12.383 112.216 12.383H107.661V14.7555H111.647C113.055 14.7555 113.055 16.8274 111.647 16.8274H107.661V19.1998H112.485C113.924 19.1998 114.035 21.2718 112.485 21.2718H106.538C105.985 21.2718 105.558 20.8447 105.558 20.2912V11.3075C105.558 10.7381 105.985 10.3268 106.538 10.3268H112.216ZM60.5268 11.9876C58.7554 11.9876 56.8259 13.2372 56.8259 15.7361C56.8259 18.2192 58.7554 19.4845 60.5268 19.4845C62.3458 19.4845 64.2912 18.2192 64.2912 15.7361C64.2912 13.2372 62.3458 11.9876 60.5268 11.9876ZM86.1026 12.1774H83.4613V16.1157H86.1026C87.1623 16.1157 88.0006 15.1825 88.0006 14.2019C88.0006 13.0948 87.1623 12.1774 86.1026 12.1774ZM74.6354 12.2406H71.5828V15.5621H74.6354C76.6915 15.5621 76.818 12.2406 74.6354 12.2406Z" fill="#6A7C92"/>
<path d="M28.3677 18.6302C26.8257 24.8252 21.1838 29.2327 14.539 29.2327C7.86407 29.2327 2.27079 24.5643 0.791992 18.3437C2.57017 18.3437 4.2325 18.3518 5.00425 18.3518C5.36831 18.3518 5.43901 18.3582 5.46007 18.3566C6.04076 18.3281 6.76888 18.1364 7.25329 16.9585L9.09916 12.1299L13.1986 22C13.5672 22.7868 14.1825 22.7311 14.5495 22.7311H14.5841C15.3002 22.7311 15.6116 22.4801 15.8839 21.9611L20.5144 12.2039L22.094 16.6013L22.1903 16.8142C22.5242 17.5468 22.7645 18.2705 23.591 18.365C23.7614 18.3845 25.7399 18.35 28.4072 18.35C28.4072 18.35 28.4072 18.3671 28.3677 18.6302Z" fill="#6A7C92"/>
<path d="M28.8204 14.9814C28.8204 15.0551 28.8204 15.2405 28.8189 15.2405H28.8159H24.5586L22.0748 8.30221C21.8536 7.78621 21.5212 7.01265 20.5523 7.01265C19.9596 7.01265 19.4241 7.50217 19.1202 8.31002L14.6176 18.7394L10.2835 8.37328C9.85923 7.45261 9.56588 7.01961 8.71741 7.01961C8.14123 7.01961 7.7185 7.23185 7.25816 8.32252L4.68568 15.3435L0.411735 15.339C0.408724 15.2322 0.407227 15.1254 0.407227 15.0186C0.407227 7.21391 6.73464 0.90625 14.5393 0.90625C22.3441 0.90625 28.8204 7.17668 28.8204 14.9814Z" fill="#6A7C92"/>
</svg>
