<svg width="34" height="33" viewBox="0 0 34 33" fill="none" xmlns="http://www.w3.org/2000/svg">
<path fill-rule="evenodd" clip-rule="evenodd" d="M2.118 25.2545C1.78076 25.8202 1.40201 26.4767 1.08034 26.9998C0.792412 27.5004 0.946981 28.1459 1.42795 28.4516L8.17275 32.7216C8.4095 32.872 8.69505 32.9182 8.96527 32.85C9.23549 32.7817 9.46776 32.6047 9.60991 32.3586C9.8797 31.8943 10.2273 31.2911 10.6061 30.6453C13.278 26.1085 15.9656 26.6635 20.8115 29.0441L27.4992 32.3159C27.7525 32.44 28.0438 32.4532 28.3067 32.3526C28.5696 32.2521 28.7818 32.0463 28.8948 31.7822L32.1064 24.3097C32.3333 23.776 32.1024 23.1537 31.5876 22.9113C30.1763 22.2281 27.3695 20.867 24.8428 19.6127C15.7529 15.0705 8.02747 15.3641 2.118 25.2545Z" fill="url(#paint0_linear_130_3227)"/>
<path fill-rule="evenodd" clip-rule="evenodd" d="M32.36 8.29767C32.6973 7.7319 33.076 7.07539 33.3977 6.55232C33.6856 6.05177 33.531 5.40623 33.0501 5.10053L26.3053 0.830543C26.0666 0.665157 25.7719 0.609173 25.4915 0.675965C25.2111 0.742757 24.9703 0.926327 24.8266 1.18282C24.5568 1.64718 24.2092 2.25031 23.8305 2.89615C21.1585 7.433 18.4709 6.8779 13.6251 4.49739L6.95809 1.24153C6.7048 1.11751 6.41349 1.10426 6.15056 1.20482C5.88762 1.30537 5.67546 1.51116 5.56243 1.77528L2.35087 9.24774C2.12397 9.78144 2.35485 10.4037 2.8697 10.6462C4.28092 11.3294 7.08779 12.6904 9.6145 13.9447C18.7252 18.4816 26.4505 18.1773 32.36 8.29767Z" fill="url(#paint1_linear_130_3227)"/>
<defs>
<linearGradient id="paint0_linear_130_3227" x1="31.9248" y1="34.926" x2="24.0049" y2="17.2644" gradientUnits="userSpaceOnUse">
<stop offset="0.18" stop-color="#0052CC"/>
<stop offset="1" stop-color="#2684FF"/>
</linearGradient>
<linearGradient id="paint1_linear_130_3227" x1="2.55322" y1="-1.37917" x2="10.4856" y2="16.2907" gradientUnits="userSpaceOnUse">
<stop offset="0.18" stop-color="#0052CC"/>
<stop offset="1" stop-color="#2684FF"/>
</linearGradient>
</defs>
</svg>
