<svg width="49" height="41" viewBox="0 0 49 41" fill="none" xmlns="http://www.w3.org/2000/svg">
<path d="M31.0913 11.0541H32.5866L36.8464 6.71741L37.0559 4.87733C29.1298 -2.24461 17.0301 -1.47721 10.0344 6.59195C8.08937 8.83349 6.67833 11.4995 5.91016 14.3851C6.38461 14.1864 6.91042 14.1551 7.40542 14.2931L15.9231 12.8628C15.9231 12.8628 16.3564 12.1331 16.5803 12.1791C20.3698 7.94273 26.7473 7.44926 31.1221 11.0541H31.0913Z" fill="#EA4335"/>
<path d="M42.9132 14.3857C41.9335 10.716 39.9248 7.41641 37.1294 4.89258L31.1525 10.9774C33.6767 13.0767 35.1145 16.2404 35.0529 19.5588V20.6399C37.992 20.6399 40.3725 23.0654 40.3725 26.0555C40.3725 29.0478 37.99 31.4712 35.0529 31.4712H24.4115L23.3496 32.5669V39.0636L24.4115 40.1447H35.0529C41.153 40.1928 46.5651 36.1676 48.3767 30.2375C50.1841 24.3054 47.9659 17.8651 42.9132 14.3857Z" fill="#4285F4"/>
<path d="M13.7567 40.0834H24.3981V31.412H13.7567C12.9988 31.412 12.2492 31.2468 11.559 30.9248L10.0638 31.3953L5.77518 35.732L5.40137 37.2542C7.80651 39.1027 10.7416 40.0959 13.7567 40.0834Z" fill="#34A853"/>
<path d="M13.7562 11.9512C7.84502 11.9868 2.60956 15.8405 0.724053 21.5426C-1.16145 27.2448 0.717891 33.5387 5.4029 37.2063L11.575 30.9228C8.89663 29.6912 7.70741 26.4837 8.91717 23.757C10.1269 21.0303 13.2777 19.8197 15.956 21.0513C17.1349 21.5949 18.0797 22.5568 18.6138 23.757L24.7858 17.4736C22.1588 13.9795 18.0777 11.9366 13.7562 11.9512Z" fill="#FBBC05"/>
</svg>
