<svg width="60" height="59" viewBox="0 0 60 59" fill="none" xmlns="http://www.w3.org/2000/svg">
<path d="M29.3633 0C14.3466 0 15.2842 6.51212 15.2842 6.51212L15.3009 13.2589H29.631V15.2844H9.60917C9.60917 15.2844 0 14.1946 0 29.3463C0 44.4985 8.38712 43.9611 8.38712 43.9611H13.3925V36.9299C13.3925 36.9299 13.1227 28.5428 21.6458 28.5428H35.8587C35.8587 28.5428 43.8439 28.6718 43.8439 20.8253V7.8516C43.8439 7.8516 45.0567 0 29.3633 0ZM21.4616 4.53706C21.8003 4.53675 22.1356 4.60322 22.4485 4.73267C22.7614 4.86212 23.0458 5.052 23.2852 5.29145C23.5247 5.5309 23.7145 5.81521 23.844 6.12812C23.9734 6.44104 24.0399 6.7764 24.0396 7.11503C24.0399 7.45366 23.9734 7.78903 23.844 8.10194C23.7145 8.41486 23.5247 8.69917 23.2852 8.93862C23.0458 9.17807 22.7614 9.36795 22.4485 9.49739C22.1356 9.62684 21.8003 9.69332 21.4616 9.69301C21.123 9.69332 20.7876 9.62684 20.4747 9.49739C20.1618 9.36795 19.8775 9.17807 19.638 8.93862C19.3986 8.69917 19.2087 8.41486 19.0793 8.10194C18.9498 7.78903 18.8833 7.45366 18.8836 7.11503C18.8833 6.7764 18.9498 6.44104 19.0793 6.12812C19.2087 5.81521 19.3986 5.5309 19.638 5.29145C19.8775 5.052 20.1618 4.86212 20.4747 4.73267C20.7876 4.60322 21.123 4.53675 21.4616 4.53706Z" fill="url(#paint0_linear_130_3240)"/>
<path d="M29.7907 58.8454C44.8074 58.8454 43.8698 52.3333 43.8698 52.3333L43.8531 45.5867H29.5227V43.5612H49.5446C49.5446 43.5612 59.1538 44.651 59.1538 29.4988C59.1538 14.3468 50.7666 14.8842 50.7666 14.8842H45.7612V21.9152C45.7612 21.9152 46.0311 30.3023 37.508 30.3023H23.2951C23.2951 30.3023 15.3098 30.1733 15.3098 38.02V50.994C15.3098 50.994 14.0973 58.8454 29.7905 58.8454H29.7907ZM37.6924 54.3088C37.3537 54.3091 37.0184 54.2426 36.7055 54.1132C36.3925 53.9837 36.1082 53.7938 35.8688 53.5544C35.6293 53.3149 35.4395 53.0306 35.31 52.7177C35.1806 52.4048 35.1141 52.0694 35.1144 51.7308C35.1141 51.3922 35.1805 51.0568 35.3099 50.7438C35.4394 50.4309 35.6293 50.1465 35.8687 49.9071C36.1082 49.6676 36.3925 49.4777 36.7054 49.3482C37.0183 49.2188 37.3537 49.1523 37.6924 49.1526C38.031 49.1523 38.3664 49.2188 38.6793 49.3482C38.9922 49.4777 39.2765 49.6675 39.516 49.907C39.7554 50.1464 39.9453 50.4308 40.0747 50.7437C40.2042 51.0566 40.2707 51.3919 40.2704 51.7306C40.2707 52.0692 40.2042 52.4046 40.0747 52.7175C39.9453 53.0304 39.7554 53.3147 39.516 53.5542C39.2765 53.7936 38.9922 53.9835 38.6793 54.1129C38.3664 54.2424 38.031 54.3089 37.6924 54.3086V54.3088Z" fill="url(#paint1_linear_130_3240)"/>
<defs>
<linearGradient id="paint0_linear_130_3240" x1="5.68455" y1="5.29276" x2="34.9988" y2="34.3146" gradientUnits="userSpaceOnUse">
<stop stop-color="#387EB8"/>
<stop offset="1" stop-color="#366994"/>
</linearGradient>
<linearGradient id="paint1_linear_130_3240" x1="23.6787" y1="23.9291" x2="55.1589" y2="53.6883" gradientUnits="userSpaceOnUse">
<stop stop-color="#FFE052"/>
<stop offset="1" stop-color="#FFC331"/>
</linearGradient>
</defs>
</svg>
