<svg width="33" height="33" viewBox="0 0 33 33" fill="none" xmlns="http://www.w3.org/2000/svg">
<path d="M0.313966 11.383C0.313966 11.383 -0.489787 10.8036 0.474716 10.03L2.72187 8.02061C2.72187 8.02061 3.36488 7.34411 4.04472 7.93353L24.7815 23.6335V31.162C24.7815 31.162 24.7715 32.3442 23.2544 32.2136L0.313966 11.383Z" fill="#2489CA"/>
<path d="M5.6584 16.2363L0.313439 21.0957C0.313439 21.0957 -0.235793 21.5043 0.313439 22.2343L2.79503 24.4915C2.79503 24.4915 3.38445 25.1245 4.25518 24.4045L9.92164 20.1077L5.6584 16.2363Z" fill="#1070B3"/>
<path d="M15.0434 16.2767L24.8459 8.79174L24.7823 1.30343C24.7823 1.30343 24.3636 -0.330873 22.9671 0.519768L9.92285 12.3919L15.0434 16.2767Z" fill="#0877B9"/>
<path d="M23.2548 32.2251C23.8241 32.8078 24.514 32.617 24.514 32.617L32.153 28.8527C33.1309 28.1863 32.9936 27.3591 32.9936 27.3591V4.88074C32.9936 3.8928 31.9822 3.5512 31.9822 3.5512L25.3613 0.359627C23.9146 -0.534549 22.9668 0.520378 22.9668 0.520378C22.9668 0.520378 24.1858 -0.357054 24.7819 1.30404V31.0262C24.7819 31.2305 24.7384 31.4314 24.6513 31.6123C24.4772 31.9639 24.0987 32.2921 23.1912 32.1548L23.2548 32.2251Z" fill="#3C99D4"/>
</svg>
